<?xml version="1.0" encoding="UTF-8" standalone="no"?>
<!DOCTYPE svg PUBLIC "-//W3C//DTD SVG 1.1//EN" "http://www.w3.org/Graphics/SVG/1.1/DTD/svg11.dtd">
<svg width="100%" height="100%" viewBox="0 0 623 571" version="1.1" xmlns="http://www.w3.org/2000/svg" xmlns:xlink="http://www.w3.org/1999/xlink" xml:space="preserve" xmlns:serif="http://www.serif.com/" style="fill-rule:evenodd;clip-rule:evenodd;stroke-linejoin:round;stroke-miterlimit:2;">
    <g id="Artboard1" transform="matrix(1,0,0,1,-4.86013,-4.75383)">
        <rect x="4.86" y="4.754" width="622.832" height="570.247" style="fill:none;"/>
        <clipPath id="_clip1">
            <rect x="4.86" y="4.754" width="622.832" height="570.247"/>
        </clipPath>
        <g clip-path="url(#_clip1)">
            <g id="Layer_2" transform="matrix(1,0,0,1,0.860132,0.75383)">
                <g id="Слой_1">
                    <g id="_1">
                        <g id="WOMAN">
                            <g id="BLOUSE">
                                <g>
                                    <path d="M374.63,457.34C374.63,457.34 368.95,536.47 326.73,596.12C326.73,596.12 257.73,607.89 197.73,596.12C197.73,596.12 138.28,533.6 121.24,465.84C121.24,465.84 64.63,351.02 90.24,331.54C115.85,312.06 179.57,278.54 179.57,278.54L309.18,284.9C325.18,294.62 359.29,310.51 393.38,328.36L374.63,457.34Z" style="fill:rgb(196,196,196);fill-rule:nonzero;"/>
                                    <g transform="matrix(-0.990785,-0.135445,0.135445,-0.990785,844.608,1204.11)">
                                        <path d="M449.47,607.52C461.17,612.52 491.36,603.31 524.91,581.33C558.46,559.35 520.4,544.84 520.4,544.84C520.4,544.84 475.8,526.94 448.59,539.84C421.38,552.74 427.06,597.87 449.47,607.52Z" style="fill:rgb(182,90,24);fill-rule:nonzero;"/>
                                    </g>
                                    <g transform="matrix(-0.997696,0.0678398,-0.0678398,-0.997696,967.329,1091.68)">
                                        <path d="M562.85,549.67C562.85,544.89 532.47,516.77 520.85,527.39C515.98,531.83 515.7,569.96 516.15,576.84C517.57,598.74 562.6,574.19 562.85,549.67Z" style="fill:rgb(195,111,11);fill-rule:nonzero;"/>
                                    </g>
                                    <path d="M90.16,331.54C79.75,339.8 -30.77,508.06 8.34,585.54C52.46,673 231.7,600.38 231.7,600.38C231.7,600.38 208.96,593.38 223.57,564.16C223.57,564.16 149.41,524.7 89.76,536.47C89.76,536.47 136.02,459.77 140.89,429.74C145.76,399.71 127.5,301.92 90.16,331.54Z" style="fill:rgb(196,196,196);fill-rule:nonzero;"/>
                                    <path d="M223.62,561.82C223.62,561.82 256.49,543.08 269.62,550.1C284.01,557.78 301.27,582.1 302.85,586.19C304.43,590.28 303.98,594.53 303.73,598.91C303.48,603.29 273.73,603.04 268.01,602.71C262.29,602.38 231.59,606.02 226.23,600.77C206.56,581.51 223.62,561.82 223.62,561.82Z" style="fill:rgb(195,111,11);fill-rule:nonzero;"/>
                                </g>
                                <circle cx="269.6" cy="421.72" r="9.35" style="fill:rgb(60,60,60);"/>
                                <circle cx="269.6" cy="459.56" r="9.35" style="fill:rgb(60,60,60);"/>
                                <circle cx="269.6" cy="497.39" r="9.35" style="fill:rgb(60,60,60);"/>
                            </g>
                            <g id="RIGHT_HAND">
                                <path d="M393.3,328.35C427.38,346.21 527.66,576.05 485.93,600.35C399.27,650.88 374.63,457.35 374.63,457.35L393.3,328.35Z" style="fill:rgb(196,196,196);fill-rule:nonzero;"/>
                            </g>
                            <g id="LEFT_HAND">
                                <path d="M270.44,512.96L303.1,585.91" style="fill:none;fill-rule:nonzero;"/>
                                <g id="ARM">
                                    <path d="M268,602.71C273.76,603.04 300.06,603.37 303.41,600.25C310.06,594.08 306.25,584.86 302.92,581.25C299.87,577.93 283.64,557.78 269.61,550.13C269.61,550.13 285.88,578.44 268,602.74" style="fill:rgb(182,90,24);fill-rule:nonzero;"/>
                                </g>
                            </g>
                            <g id="HEAD">
                                <g id="HAIR">
                                    <path d="M213.93,67.77C213.93,67.77 199.32,44.23 213.93,32.06C228.54,19.89 234.55,0.13 261,0C288.32,-0.13 299.22,21.17 311.73,19.07C328.73,16.22 340.65,10.74 362.24,22.13C379.52,31.25 380.24,65.44 397.76,63.71C411.7,62.34 427.18,63.22 435.09,78.71C441.09,90.44 434.69,122.13 443.61,130.65C452.53,139.17 473.61,141.95 475.27,163.92C477.47,193.61 446.47,197.98 454.57,221.55C465.23,252.55 450.19,272.01 423.73,275.55C405.12,278.02 372.42,250.35 360.43,269.46C350.2,285.75 328.77,293 302.43,282.46C276.09,271.92 259.82,275.15 243.59,282.05C227.36,288.95 207.47,298.68 194.08,286.91C180.69,275.14 164.53,274.81 146.7,282.18C121.96,292.41 95.41,275.59 98.7,253.24C101.43,234.77 76.08,232.44 73.14,211.44C69.3,184.01 109.66,176.95 97.89,165.18C86.12,153.41 86.54,119 121.41,114.44C154.49,110.14 147.41,89.53 156.74,75.44C164.61,63.66 189.18,48.7 213.93,67.77Z" style="fill:rgb(114,45,84);fill-rule:nonzero;"/>
                                </g>
                                <g id="NECK">
                                    <path d="M218.65,168.93C218.4,189.93 219.71,247.84 179.49,278.53C179.49,278.53 251.71,314.8 268.01,395.15C268.01,395.15 279.48,310.46 309.1,284.89C309.1,284.89 274,264.99 281.71,168.89L218.65,168.93Z" style="fill:rgb(195,111,11);fill-rule:nonzero;"/>
                                    <path d="M288.32,252.15C283.32,256.67 277.68,259.25 271.56,259.25C246.22,259.25 220.99,220.65 218.56,179.38C218.64,175.32 218.64,171.78 218.68,168.93L281.74,168.93C278.57,208 282.52,234.49 288.32,252.15Z" style="fill:rgb(182,90,24);fill-rule:nonzero;"/>
                                </g>
                                <path id="HEAD-2" d="M216.37,149.93C216.65,139.37 220.37,84.19 265.06,86.22C309.75,88.25 317,133.29 313,169.41C309,205.53 287,229.87 271.61,228.25C256.22,226.63 215.15,194.57 216.37,149.93Z" style="fill:rgb(195,111,11);fill-rule:nonzero;"/>
                            </g>
                        </g>
                    </g>
                </g>
            </g>
        </g>
    </g>
</svg>
